# xmcd
#
# Track frame offsets:
# 150
# 16770
# 35438
# 52983
# 66590
# 81653
# 99892
# 116481
# 132318
# 146691
# 162851
# 178114
# 196984
# 213230
# 236288
# 250953
# 267618
# 280773
# 304098
# 323448
#
# Disc length: 4511 seconds
#
#
# Revision: 0
# Processed by: cddbd v1.5.2PL0 Copyright (c) Steve Scherf et al.
# Submitted via: FreeRIP 2.942 
#
DISCID=1b119d14
DTITLE=João Bosco and Vinicius - Acústico pelo Brasil
DYEAR=1900
DGENRE=Country
TTITLE0=01. Querendo te encontrar
TTITLE1=02. Deixa eu chorar
TTITLE2=03. Nao da pra continuar
TTITLE3=04. So fazendo amor
TTITLE4=05. Nao e mais como antes
TTITLE5=06. Vou doar meu coracao
TTITLE6=07. Coracao idiota
TTITLE7=08. Sofrendo por amor
TTITLE8=09. O fora
TTITLE9=10. Vem me amar
TTITLE10=11. Parece castigo
TTITLE11=12. Mania de me enganar
TTITLE12=13. Quero um beijo
TTITLE13=14. Preciso amar de novo, desejos
TTITLE14=15. Ah e
TTITLE15=16. Chora Peito Chora
TTITLE16=17. To falando, ta teimando
TTITLE17=18. Faz de conta que eu sou ele, amor me pegou
TTITLE18=19. Quero provar que te amo
TTITLE19=20. Falando Serio
EXTD=
EXTT0=
EXTT1=
EXTT2=
EXTT3=
EXTT4=
EXTT5=
EXTT6=
EXTT7=
EXTT8=
EXTT9=
EXTT10=
EXTT11=
EXTT12=
EXTT13=
EXTT14=
EXTT15=
EXTT16=
EXTT17=
EXTT18=
EXTT19=
PLAYORDER=
